<svg xmlns="http://www.w3.org/2000/svg" viewBox="0 0 927 315" >
<style>
	.st0{fill:#FFB81C;}
	.st1{fill:#FFFFFF;}
</style>
<g>
	<path class="st0" d="M150,200H0L150,0v140H76.2L50,175h75v-25h25V200z M95,115h30V75L95,115z"/>
</g>
<g>
	<path class="st0" d="M160,315V210h25v30l30-40h-55v-85h150L160,315z M185,175h48.8l26.2-35h-75V175z"/>
</g>
<g>
	<path class="st1" d="M336,138.7v10.4h28.4v16.2H336v11h31.2v16.2H319v-70h48.2v16.2H336z"/>
	<path class="st1" d="M439.6,122.5v70h-19.3L394,148.4l1.4,14.8v29.3h-17v-70h19.3l26.2,44.1l-1.3-14.8v-29.3H439.6z"/>
	<path class="st1" d="M514.8,157.5c0,19.9-15.4,35-35.8,35h-26.1v-70H479C499.4,122.5,514.8,137.6,514.8,157.5z M497.8,157.5
		c0-11.2-7.7-18.8-18.8-18.8h-9.1v37.6h9.1C490.1,176.3,497.8,168.6,497.8,157.5z"/>
	<path class="st1" d="M592.1,153.8v38.7h-14.5v-9.8c-3.1,6.2-11,11.1-22,11.1c-19.3,0-34.6-15.1-34.6-36.1c0-21,15.3-36.5,36.3-36.5
		c17.2,0,30.3,10.4,34.1,25.1h-18.2c-2.8-5.6-8.5-8.9-15.9-8.9c-11.6,0-19.1,8.2-19.1,20.5c0,11.2,6.2,20.2,18.7,20.2
		c7.7,0,14.3-3.4,17.1-10.1h-20.8v-14.2H592.1z"/>
	<path class="st1" d="M648,178h-26.2l-5,14.5h-18l25.4-70h21.4l25.4,70h-18L648,178z M642.4,161.8l-7.5-21.8l-7.5,21.8H642.4z"/>
	<path class="st1" d="M748.3,122.5v70h-17v-46.2L713.8,173h-1.6l-17.5-26.7v46.2h-17v-70H697l16,24l16-24H748.3z"/>
	<path class="st1" d="M778.9,138.7v10.4h28.4v16.2h-28.4v11h31.2v16.2h-48.2v-70h48.2v16.2H778.9z"/>
</g>
<g>
	<path class="st1" d="M823.7,122.5v70h102.9v-70H823.7z M902.1,186h-17.4L871,142.2h-11.5V186h-13.8v-43.8h-15.5V129h51.3l12,40.2
		l12-40.2h14.7L902.1,186z"/>
</g>
</svg>
